# Blender 4.1.1
# www.blender.org
mtllib Sword.mtl
o Cube.004
v -7.228121 -0.831752 0.031150
v -7.427427 0.606712 0.031150
v -7.228121 -0.831752 -0.031150
v -7.427427 0.606712 -0.031150
v -6.404903 -0.831752 0.048791
v -6.604210 0.606712 0.048791
v -6.404903 -0.831752 -0.048791
v -6.604210 0.606712 -0.048791
v -8.195757 1.382325 0.031150
v -8.195757 1.382325 -0.031150
v -7.372540 1.382325 -0.048791
v -7.372540 1.382325 0.048791
v -7.560905 2.250273 0.031150
v -7.560905 2.250273 -0.031150
v -6.737687 2.250273 -0.048791
v -6.737687 2.250273 0.048791
v -7.928091 3.025887 0.031150
v -7.928091 3.025887 -0.031150
v -7.104873 3.025887 -0.048791
v -7.104873 3.025887 0.048791
v -7.514389 3.616830 0.031150
v -7.514389 3.616830 -0.031150
v -6.691172 3.616830 -0.048791
v -6.691172 3.616830 0.048791
v -8.336140 4.687914 0.031150
v -8.336140 4.687914 -0.031150
v -7.512922 4.687914 -0.048791
v -7.512922 4.687914 0.048791
v -6.855692 -2.157935 -0.031150
v -6.855692 -2.157935 0.031150
v -6.777333 -2.157935 -0.048791
v -6.777333 -2.157935 0.048791
v -8.800314 4.608955 0.334998
v -8.800314 4.608955 -0.334998
v -7.048748 4.608955 -0.334998
v -7.048748 4.608955 0.334998
v -8.155247 4.699370 0.088252
v -8.155247 4.699370 -0.088252
v -7.693815 4.699370 -0.088252
v -7.693815 4.699370 0.088252
v -6.816512 -0.831752 -0.157445
v -7.015819 0.606712 -0.157445
v -6.816512 -0.831752 0.157445
v -7.015819 0.606712 0.157445
v -7.784149 1.382325 -0.157445
v -7.784149 1.382325 0.157445
v -7.149296 2.250273 -0.157445
v -7.149296 2.250273 0.157445
v -7.516482 3.025887 -0.157445
v -7.516482 3.025887 0.157445
v -7.102780 3.616830 -0.157445
v -7.102780 3.616830 0.157445
v -7.924531 4.687914 -0.157445
v -7.924531 4.687914 0.157445
v -6.816512 -2.157936 -0.157445
v -6.816512 -2.157936 0.157445
v -7.924531 4.608955 -0.334998
v -7.924531 4.608955 0.334998
v -7.924531 4.699370 -0.088252
v -7.924531 4.699370 0.088252
v -8.800314 4.699370 0.334998
v -8.800314 4.699370 -0.334998
v -7.924531 4.699370 -0.334998
v -7.048748 4.699370 -0.334998
v -7.048748 4.699370 0.334998
v -7.924531 4.699370 0.334998
v -7.924531 7.340149 -0.088252
v -7.924531 7.340149 0.088252
v -8.155247 7.340149 0.088252
v -8.155247 7.340149 -0.088252
v -7.693815 7.340149 -0.088252
v -7.693815 7.340149 0.088252
v -7.924531 7.439775 -0.156588
v -7.924531 7.439775 0.156588
v -8.333899 7.439775 0.156588
v -8.333899 7.439775 -0.156588
v -7.515162 7.439775 -0.156588
v -7.515162 7.439775 0.156588
v -7.924531 7.772811 -0.156588
v -7.924531 7.772811 0.156588
v -8.333899 7.772811 0.156588
v -8.333899 7.772811 -0.156588
v -7.515162 7.772811 -0.156588
v -7.515162 7.772811 0.156588
vn -0.9791 -0.2033 -0.0000
vn -0.9905 -0.1372 -0.0000
vn 0.3322 -0.0053 -0.9432
vn 0.2551 0.0353 -0.9663
vn 0.3314 -0.0049 -0.9435
vn 0.9905 0.1372 -0.0000
vn -0.3861 -0.0539 0.9209
vn -0.2931 -0.0406 0.9552
vn -0.3664 -0.0511 0.9291
vn -0.9628 -0.2704 -0.0000
vn 0.2474 0.2451 0.9374
vn 0.8071 -0.5904 -0.0000
vn -0.2817 -0.2790 -0.9180
vn 0.7104 0.7038 -0.0000
vn -0.7104 -0.7038 -0.0000
vn 0.9038 0.4279 -0.0000
vn -0.8071 0.5904 -0.0000
vn 0.2509 -0.1835 0.9505
vn -0.2868 0.2098 -0.9347
vn 0.2513 -0.1759 0.9518
vn -0.9038 -0.4279 -0.0000
vn 0.2534 0.1200 0.9599
vn -0.2905 -0.1375 -0.9469
vn 0.7934 0.6087 -0.0000
vn -0.2873 0.2012 -0.9365
vn 0.8192 -0.5735 -0.0000
vn -0.8192 0.5735 -0.0000
vn 0.1188 -0.9874 0.1047
vn 0.1188 -0.9874 -0.1047
vn 0.0751 -0.9780 -0.1944
vn 0.0751 -0.9780 0.1944
vn -0.7934 -0.6087 -0.0000
vn 0.2505 0.1922 0.9489
vn -0.2862 -0.2196 -0.9327
vn -0.0000 -1.0000 -0.0000
vn 0.9628 -0.2704 -0.0000
vn -0.4877 -0.0685 0.8703
vn 0.4334 -0.0609 -0.8991
vn 1.0000 -0.0000 -0.0000
vn 0.0018 -0.9560 -0.2932
vn -0.1152 -0.9867 -0.1151
vn -0.0755 -0.9772 -0.1983
vn 0.0014 -0.9560 -0.2933
vn 0.0018 -0.9560 0.2932
vn 0.0014 -0.9560 0.2933
vn -0.1152 -0.9867 0.1151
vn -0.0755 -0.9772 0.1983
vn -0.3573 -0.0000 0.9340
vn -0.0000 -0.0000 1.0000
vn -1.0000 -0.0000 -0.0000
vn -0.0000 -0.0000 -1.0000
vn 0.3573 -0.0000 0.9340
vn -0.3664 -0.0511 -0.9291
vn -0.3861 -0.0539 -0.9209
vn -0.4877 -0.0685 -0.8703
vn 0.3314 -0.0049 0.9435
vn 0.3322 -0.0053 0.9432
vn 0.4334 -0.0609 0.8991
vn 0.2505 0.1922 -0.9489
vn -0.2862 -0.2196 0.9327
vn 0.2513 -0.1759 -0.9518
vn 0.2534 0.1200 -0.9599
vn -0.2905 -0.1375 0.9469
vn -0.2873 0.2012 0.9365
vn 0.2509 -0.1835 -0.9505
vn -0.2868 0.2098 0.9347
vn 0.2474 0.2451 -0.9374
vn -0.2817 -0.2790 0.9180
vn 0.2551 0.0353 0.9663
vn -0.2931 -0.0406 -0.9552
vn -0.0000 1.0000 -0.0000
vn 0.2198 -0.7883 -0.5746
vn -0.0000 -0.5656 -0.8246
vn -0.2198 -0.7883 0.5746
vn -0.0000 -0.5656 0.8246
vn 0.3573 -0.0000 -0.9340
vn -0.3573 -0.0000 -0.9340
vn -0.2198 -0.7883 -0.5746
vn 0.2198 -0.7883 0.5746
vt 0.375000 0.000000
vt 0.625000 0.000000
vt 0.625000 0.250000
vt 0.375000 0.250000
vt 0.375000 0.375000
vt 0.625000 0.375000
vt 0.625000 0.500000
vt 0.375000 0.500000
vt 0.625000 0.750000
vt 0.375000 0.750000
vt 0.375000 0.875000
vt 0.625000 0.875000
vt 0.625000 1.000000
vt 0.375000 1.000000
vt 0.625000 0.875000
vt 0.625000 0.375000
vt 0.625000 0.375000
vt 0.625000 0.375000
vt 0.625000 0.875000
vt 0.250000 0.500000
vt 0.250000 0.750000
vt 0.375000 0.875000
vt 0.782930 0.657930
vt 0.750000 0.657930
vt 0.717070 0.657930
vt 0.125000 0.500000
vt 0.125000 0.750000
vt 0.782930 0.592070
vt 0.875000 0.500000
vt 0.875000 0.750000
vt 0.750000 0.592070
vt 0.717070 0.592070
vt 0.750000 0.500000
vt 0.750000 0.750000
s 1
f 1/1/1 2/2/2 4/3/2 3/4/1
f 41/5/3 42/6/4 8/7/4 7/8/5
f 7/8/6 8/7/6 6/9/6 5/10/6
f 43/11/7 44/12/8 2/13/8 1/14/9
f 1/1/1 3/4/1 29/4/10 30/1/10
f 44/12/11 6/9/11 12/9/11 46/15/11
f 12/9/12 11/7/12 15/7/12 16/9/12
f 42/6/13 4/3/13 10/3/13 45/16/13
f 6/9/14 8/7/14 11/7/14 12/9/14
f 4/3/15 2/2/15 9/2/15 10/3/15
f 16/9/16 15/7/16 19/7/16 20/9/16
f 10/3/17 9/2/17 13/2/17 14/3/17
f 46/15/18 12/9/18 16/9/18 48/12/18
f 45/16/19 10/3/19 14/3/19 47/17/19
f 50/12/20 20/9/20 24/9/20 52/12/20
f 14/3/21 13/2/21 17/2/21 18/3/21
f 48/12/22 16/9/22 20/9/22 50/12/22
f 47/17/23 14/3/23 18/3/23 49/18/23
f 24/9/24 23/7/24 27/7/24 28/9/24
f 49/18/25 18/3/25 22/3/25 51/18/25
f 20/9/26 19/7/26 23/7/26 24/9/26
f 18/3/27 17/2/27 21/2/27 22/3/27
f 26/3/28 25/2/29 33/2/30 34/3/31
f 22/3/32 21/2/32 25/2/32 26/3/32
f 52/12/33 24/9/33 28/9/33 54/19/33
f 51/18/34 22/3/34 26/3/34 53/18/34
f 55/20/35 31/8/35 32/10/35 56/21/35
f 7/8/36 5/10/36 32/10/36 31/8/36
f 43/11/7 1/14/9 30/14/37 56/22/37
f 41/5/3 7/8/5 31/8/38 55/5/38
f 36/9/39 35/7/39 64/7/39 65/9/39
f 54/19/40 28/9/41 36/9/42 58/12/43
f 53/18/44 26/3/28 34/3/31 57/18/45
f 28/9/41 27/7/46 35/7/47 36/9/42
f 37/23/48 60/24/49 68/24/49 69/23/48
f 34/3/50 33/2/50 61/2/50 62/3/50
f 58/12/49 36/9/49 65/9/49 66/12/49
f 57/18/51 34/3/51 62/3/51 63/18/51
f 35/7/51 57/18/51 63/18/51 64/7/51
f 33/13/49 58/12/49 66/12/49 61/13/49
f 60/24/49 40/25/52 72/25/52 68/24/49
f 27/7/46 53/18/44 57/18/45 35/7/47
f 25/13/29 54/19/40 58/12/43 33/13/30
f 3/4/53 41/5/54 55/5/55 29/4/55
f 5/10/56 43/11/57 56/22/58 32/10/58
f 29/26/35 55/20/35 56/21/35 30/27/35
f 23/7/59 51/18/59 53/18/59 27/7/59
f 21/13/60 52/12/60 54/19/60 25/13/60
f 19/7/61 49/18/61 51/18/61 23/7/61
f 15/7/62 47/17/62 49/18/62 19/7/62
f 13/13/63 48/12/63 50/12/63 17/13/63
f 17/13/64 50/12/64 52/12/64 21/13/64
f 11/7/65 45/16/65 47/17/65 15/7/65
f 9/13/66 46/15/66 48/12/66 13/13/66
f 8/7/67 42/6/67 45/16/67 11/7/67
f 2/13/68 44/12/68 46/15/68 9/13/68
f 5/10/56 6/9/69 44/12/69 43/11/57
f 3/4/53 4/3/70 42/6/70 41/5/54
f 37/23/71 38/28/71 62/29/71 61/30/71
f 59/31/71 39/32/71 64/7/71 63/33/71
f 39/32/71 40/25/71 65/9/71 64/7/71
f 60/24/71 37/23/71 61/30/71 66/34/71
f 38/28/71 59/31/71 63/33/71 62/29/71
f 40/25/71 60/24/71 66/34/71 65/9/71
f 71/32/72 67/31/73 73/31/73 77/32/72
f 69/23/74 68/24/75 74/24/75 75/23/74
f 39/32/76 59/31/51 67/31/51 71/32/76
f 59/31/51 38/28/77 70/28/77 67/31/51
f 40/25/52 39/32/76 71/32/76 72/25/52
f 38/28/77 37/23/48 69/23/48 70/28/77
f 76/28/77 75/23/48 81/23/48 82/28/77
f 78/25/52 77/32/76 83/32/76 84/25/52
f 67/31/73 70/28/78 76/28/78 73/31/73
f 72/25/79 71/32/72 77/32/72 78/25/79
f 70/28/78 69/23/74 75/23/74 76/28/78
f 68/24/75 72/25/79 78/25/79 74/24/75
f 79/31/71 82/28/71 81/23/71 80/24/71
f 83/32/71 79/31/71 80/24/71 84/25/71
f 74/24/49 78/25/52 84/25/52 80/24/49
f 75/23/48 74/24/49 80/24/49 81/23/48
f 77/32/76 73/31/51 79/31/51 83/32/76
f 73/31/51 76/28/77 82/28/77 79/31/51
