# Blender 4.1.1
# www.blender.org
mtllib wine.mtl
o Cylinder
v -3.698195 -0.595413 -0.595413
v -3.698195 0.595413 -0.595413
v -3.277174 -0.595413 -0.421020
v -3.277174 0.595413 -0.421020
v -3.102782 -0.595413 0.000000
v -3.102782 0.595413 0.000000
v -3.277174 -0.595413 0.421020
v -3.277174 0.595413 0.421020
v -3.698195 -0.595413 0.595413
v -3.698195 0.595413 0.595413
v -4.119215 -0.595413 0.421020
v -4.119215 0.595413 0.421020
v -4.293608 -0.595413 0.000000
v -4.293608 0.595413 0.000000
v -4.119215 -0.595413 -0.421020
v -4.119215 0.595413 -0.421020
v -3.277174 2.108688 -0.421020
v -3.698195 2.108688 -0.595413
v -3.102782 2.108688 0.000000
v -3.277174 2.108688 0.421020
v -3.698195 2.108688 0.595413
v -4.119215 2.108688 0.421020
v -4.293608 2.108688 0.000000
v -4.119215 2.108688 -0.421020
v -3.506744 2.788303 -0.191451
v -3.698195 2.788303 -0.270753
v -3.427442 2.788303 0.000000
v -3.506744 2.788303 0.191451
v -3.698195 2.788303 0.270753
v -3.889646 2.788303 0.191451
v -3.968947 2.788303 0.000000
v -3.889646 2.788303 -0.191451
v -3.506744 3.893810 -0.191451
v -3.698195 3.893810 -0.270753
v -3.427442 3.893810 0.000000
v -3.506744 3.893810 0.191451
v -3.698195 3.893810 0.270753
v -3.889646 3.893810 0.191451
v -3.968947 3.893810 0.000000
v -3.889646 3.893810 -0.191451
vn -0.0000 -0.6303 -0.7764
vn -0.0000 -0.0000 -1.0000
vn 0.5490 -0.6303 -0.5490
vn 0.7071 -0.0000 -0.7071
vn 0.7764 -0.6303 -0.0000
vn 1.0000 -0.0000 -0.0000
vn 0.5490 -0.6303 0.5490
vn 0.7071 -0.0000 0.7071
vn -0.0000 -0.6303 0.7764
vn -0.0000 -0.0000 1.0000
vn -0.5490 -0.6303 0.5490
vn -0.7071 -0.0000 0.7071
vn -0.7764 -0.6303 -0.0000
vn -1.0000 -0.0000 -0.0000
vn -0.5490 -0.6303 -0.5490
vn -0.7071 -0.0000 -0.7071
vn 0.6913 0.2102 -0.6913
vn -0.0000 0.2102 -0.9777
vn 0.9777 0.2102 -0.0000
vn 0.6913 0.2102 0.6913
vn -0.0000 0.2102 0.9777
vn -0.6913 0.2102 0.6913
vn -0.9777 0.2102 -0.0000
vn -0.6913 0.2102 -0.6913
vn 0.6875 0.2336 -0.6875
vn -0.0000 0.2336 -0.9723
vn 0.9723 0.2336 -0.0000
vn 0.6875 0.2336 0.6875
vn -0.0000 0.2336 0.9723
vn -0.6875 0.2336 0.6875
vn -0.9723 0.2336 -0.0000
vn -0.6875 0.2336 -0.6875
vn 0.5490 0.6303 -0.5490
vn -0.0000 0.6303 -0.7764
vn 0.7764 0.6303 -0.0000
vn 0.5490 0.6303 0.5490
vn -0.0000 0.6303 0.7764
vn -0.5490 0.6303 0.5490
vn -0.7764 0.6303 -0.0000
vn -0.5490 0.6303 -0.5490
vt 1.000000 0.500000
vt 1.000000 1.000000
vt 0.875000 1.000000
vt 0.875000 0.500000
vt 0.750000 1.000000
vt 0.750000 0.500000
vt 0.625000 1.000000
vt 0.625000 0.500000
vt 0.500000 1.000000
vt 0.500000 0.500000
vt 0.375000 1.000000
vt 0.375000 0.500000
vt 0.250000 1.000000
vt 0.250000 0.500000
vt 0.125000 1.000000
vt 0.125000 0.500000
vt 0.000000 1.000000
vt 0.000000 0.500000
vt 0.750000 0.490000
vt 0.919706 0.419706
vt 0.990000 0.250000
vt 0.919706 0.080294
vt 0.750000 0.010000
vt 0.580294 0.080294
vt 0.510000 0.250000
vt 0.580294 0.419706
vt 0.419706 0.419706
vt 0.250000 0.490000
vt 0.080294 0.419706
vt 0.010000 0.250000
vt 0.080294 0.080294
vt 0.250000 0.010000
vt 0.419706 0.080294
vt 0.490000 0.250000
s 1
f 1/1/1 2/2/2 4/3/4 3/4/3
f 3/4/3 4/3/4 6/5/6 5/6/5
f 5/6/5 6/5/6 8/7/8 7/8/7
f 7/8/7 8/7/8 10/9/10 9/10/9
f 9/10/9 10/9/10 12/11/12 11/12/11
f 11/12/11 12/11/12 14/13/14 13/14/13
f 10/9/10 8/7/8 20/7/20 21/9/21
f 13/14/13 14/13/14 16/15/16 15/16/15
f 15/16/15 16/15/16 2/17/2 1/18/1
f 1/19/1 3/20/3 5/21/5 7/22/7 9/23/9 11/24/11 13/25/13 15/26/15
f 18/17/18 24/15/24 32/15/32 26/17/26
f 16/15/16 14/13/14 23/13/23 24/15/24
f 6/5/6 4/3/4 17/3/17 19/5/19
f 12/11/12 10/9/10 21/9/21 22/11/22
f 2/17/2 16/15/16 24/15/24 18/17/18
f 4/3/4 2/2/2 18/2/18 17/3/17
f 8/7/8 6/5/6 19/5/19 20/7/20
f 14/13/14 12/11/12 22/11/22 23/13/23
f 30/11/30 29/9/29 37/9/37 38/11/38
f 23/13/23 22/11/22 30/11/30 31/13/31
f 21/9/21 20/7/20 28/7/28 29/9/29
f 19/5/19 17/3/17 25/3/25 27/5/27
f 24/15/24 23/13/23 31/13/31 32/15/32
f 22/11/22 21/9/21 29/9/29 30/11/30
f 20/7/20 19/5/19 27/5/27 28/7/28
f 17/3/17 18/2/18 26/2/26 25/3/25
f 33/27/33 34/28/34 40/29/40 39/30/39 38/31/38 37/32/37 36/33/36 35/34/35
f 28/7/28 27/5/27 35/5/35 36/7/36
f 25/3/25 26/2/26 34/2/34 33/3/33
f 26/17/26 32/15/32 40/15/40 34/17/34
f 31/13/31 30/11/30 38/11/38 39/13/39
f 29/9/29 28/7/28 36/7/36 37/9/37
f 27/5/27 25/3/25 33/3/33 35/5/35
f 32/15/32 31/13/31 39/13/39 40/15/40
